<svg xmlns="http://www.w3.org/2000/svg" xmlns:xlink="http://www.w3.org/1999/xlink" width="500" zoomAndPan="magnify" viewBox="0 0 375 374.999991" height="500" preserveAspectRatio="xMidYMid meet" version="1.0"><defs><clipPath id="ad85f1155a"><path d="M 116.542969 107.488281 L 172.792969 107.488281 L 172.792969 189.988281 L 116.542969 189.988281 Z M 116.542969 107.488281 " clip-rule="nonzero"/></clipPath><clipPath id="b7d35996b5"><path d="M 165.753906 107.492188 L 246.003906 107.492188 L 246.003906 189.988281 L 165.753906 189.988281 Z M 165.753906 107.492188 " clip-rule="nonzero"/></clipPath><clipPath id="78c9d6bdce"><path d="M 160 169 L 182 169 L 182 191 L 160 191 Z M 160 169 " clip-rule="nonzero"/></clipPath><clipPath id="8b63a9123b"><path d="M 152.441406 177.140625 L 167.445312 161.390625 L 181.019531 174.328125 L 166.015625 190.074219 Z M 152.441406 177.140625 " clip-rule="nonzero"/></clipPath><clipPath id="8ea84bb18f"><path d="M 152.441406 177.140625 L 167.445312 161.390625 L 181.019531 174.328125 L 166.015625 190.074219 Z M 152.441406 177.140625 " clip-rule="nonzero"/></clipPath><clipPath id="2cf40be223"><path d="M 161 107 L 183 107 L 183 130 L 161 130 Z M 161 107 " clip-rule="nonzero"/></clipPath><clipPath id="89ae4bd4f9"><path d="M 185.210938 111.957031 L 180 133.84375 L 161.03125 129.328125 L 166.238281 107.441406 Z M 185.210938 111.957031 " clip-rule="nonzero"/></clipPath><clipPath id="08554c662a"><path d="M 185.210938 111.957031 L 180 133.84375 L 161.03125 129.328125 L 166.238281 107.441406 Z M 185.210938 111.957031 " clip-rule="nonzero"/></clipPath></defs><g clip-path="url(#ad85f1155a)"><path fill="#ff66c4" d="M 158.769531 168.441406 C 155.785156 170.191406 153.140625 171.9375 150.324219 173.347656 C 146.742188 175.179688 142.902344 176.203125 138.765625 175.820312 C 132.578125 175.222656 127.675781 172.492188 124.132812 167.375 C 121.0625 162.9375 119.230469 157.992188 118.207031 152.703125 C 116.710938 144.855469 116.542969 136.792969 117.652344 128.902344 C 117.777344 127.792969 118.164062 126.726562 118.675781 125.703125 C 119.828125 123.65625 122.128906 122.589844 124.433594 123.058594 C 126.820312 123.527344 128.613281 125.53125 128.785156 127.964844 C 128.828125 128.988281 128.785156 130.011719 128.699219 131.035156 C 128.355469 138.542969 128.953125 145.960938 131.214844 153.171875 C 131.984375 155.601562 133.050781 157.949219 134.371094 160.125 C 136.207031 163.152344 139.191406 164.003906 142.644531 162.980469 C 147.636719 161.488281 151.21875 158.546875 153.265625 153.597656 C 155.441406 148.308594 156.378906 142.804688 157.0625 137.21875 C 157.957031 129.839844 158.898438 122.417969 159.835938 114.996094 C 159.921875 114.1875 160.007812 113.375 160.175781 112.566406 C 160.859375 109.496094 163.332031 107.53125 166.277344 107.53125 C 169.261719 107.574219 171.777344 109.707031 172.332031 112.652344 C 172.503906 113.546875 172.546875 114.484375 172.503906 115.378906 C 172.289062 129.070312 172.289062 142.804688 171.777344 156.5 C 171.394531 165.285156 171.480469 174.070312 171.992188 182.859375 C 172.035156 183.457031 172.035156 184.09375 171.949219 184.691406 C 171.609375 187.421875 169.433594 189.554688 166.660156 189.851562 C 163.714844 190.238281 161.113281 188.703125 160.132812 185.929688 C 159.75 184.777344 159.535156 183.539062 159.492188 182.347656 C 159.238281 177.867188 159.023438 173.261719 158.769531 168.441406 Z M 158.769531 168.441406 " fill-opacity="1" fill-rule="nonzero"/></g><g clip-path="url(#b7d35996b5)"><path fill="#5ce1e6" d="M 204.882812 107.492188 L 165.753906 107.492188 L 180.789062 122.523438 L 205.292969 122.523438 C 219.851562 122.523438 231.652344 134.328125 231.652344 148.882812 C 231.652344 156.160156 228.703125 162.75 223.933594 167.519531 C 219.160156 172.292969 212.570312 175.242188 205.292969 175.242188 L 180.789062 175.242188 L 165.753906 190.277344 L 204.882812 190.277344 C 216.3125 190.277344 226.660156 185.640625 234.152344 178.152344 C 241.640625 170.664062 246.273438 160.3125 246.273438 148.882812 C 246.273438 126.023438 227.742188 107.492188 204.882812 107.492188 " fill-opacity="1" fill-rule="nonzero"/></g><path fill="#5ce1e6" d="M 214.972656 148.882812 C 214.972656 139.429688 207.308594 131.765625 197.855469 131.765625 L 185.730469 131.765625 L 185.730469 166 L 197.855469 166 C 202.582031 166 206.859375 164.085938 209.957031 160.988281 C 213.054688 157.890625 214.972656 153.609375 214.972656 148.882812 " fill-opacity="1" fill-rule="nonzero"/><g clip-path="url(#78c9d6bdce)"><g clip-path="url(#8b63a9123b)"><g clip-path="url(#8ea84bb18f)"><path fill="#ff66c4" d="M 166.238281 190.28125 L 160.03125 169.171875 L 181.414062 174.351562 Z M 166.238281 190.28125 " fill-opacity="1" fill-rule="nonzero"/></g></g></g><g clip-path="url(#2cf40be223)"><g clip-path="url(#89ae4bd4f9)"><g clip-path="url(#08554c662a)"><path fill="#ff66c4" d="M 166.449219 107.488281 L 182.628906 122.785156 L 161.292969 129.152344 Z M 166.449219 107.488281 " fill-opacity="1" fill-rule="nonzero"/></g></g></g></svg>